<?xml version="1.0" encoding="UTF-8"?>
<svg id="_0" data-name="0" xmlns="http://www.w3.org/2000/svg" viewBox="0 0 549.57 549.57">
  <path d="M18.79,512.5c0,10.1,8.19,18.29,18.29,18.29h52.14v-70.43H18.79v52.14Z" style="fill: none; stroke: #000; stroke-miterlimit: 10;"/>
  <path d="M342.67,206.9c-3.21-3.21-8.42-3.21-11.64,0l-17.19,17.19c-10.81-8.34-24.35-13.31-39.05-13.31s-28.24,4.97-39.05,13.31h0s-17.18-17.19-17.18-17.19c-3.21-3.21-8.42-3.21-11.64,0s-3.21,8.42,0,11.64l17.18,17.18h0c-8.34,10.82-13.31,24.35-13.31,39.06s4.97,28.24,13.31,39.05l-17.19,17.19c-3.21,3.21-3.21,8.42,0,11.64s8.42,3.21,11.64,0l17.19-17.19c10.81,8.34,24.35,13.31,39.05,13.31s28.24-4.97,39.05-13.31h0s17.18,17.19,17.18,17.19c3.21,3.21,8.42,3.21,11.64,0s3.21-8.42,0-11.64l-17.19-17.19c8.34-10.81,13.31-24.35,13.31-39.05s-4.97-28.24-13.31-39.05l17.19-17.19c3.21-3.21,3.21-8.42,0-11.64Z" style="fill: none; stroke: #000; stroke-miterlimit: 10;"/>
  <path d="M18.79,37.07v52.14h70.43V18.79h-52.14c-10.1,0-18.29,8.19-18.29,18.29Z" style="fill: none; stroke: #000; stroke-miterlimit: 10;"/>
  <path d="M530.79,512.5v-52.14h-70.43v70.43h52.14c10.1,0,18.29-8.19,18.29-18.29Z" style="fill: none; stroke: #000; stroke-miterlimit: 10;"/>
  <path d="M530.79,37.07c0-10.1-8.19-18.29-18.29-18.29h-52.14v70.43h70.43v-52.14Z" style="fill: none; stroke: #000; stroke-miterlimit: 10;"/>
  <path d="M530.79,201.64v-23.77h18.29V37.07c0-20.2-16.37-36.57-36.57-36.57h-140.8v18.29h-23.77v14.63h78.63v74.08l-64.89,64.89h-173.77l-64.89-64.89V33.41h78.63v-14.63h-23.77V.5H37.07C16.87.5.5,16.87.5,37.07v140.8h18.29v23.77h14.63v-78.63h74.08l64.89,64.89v173.77l-64.89,64.89H33.41v-78.63h-14.63v23.77H.5v140.8c0,20.2,16.37,36.57,36.57,36.57h140.8v-18.29h23.77v-14.63h-78.63v-74.08l64.89-64.89h173.77l64.89,64.89v74.08h-78.63v14.63h23.77v18.29h140.8c20.2,0,36.57-16.37,36.57-36.57v-140.8h-18.29v-23.77h-14.63v78.63h-74.08l-64.89-64.89v-173.77l64.89-64.89h74.08v78.63h14.63ZM89.21,89.21H18.79v-52.14c0-10.1,8.19-18.29,18.29-18.29h52.14v70.43ZM89.21,530.79h-52.14c-10.1,0-18.29-8.19-18.29-18.29v-52.14h70.43v70.43ZM338.79,274.79c0,14.71-4.97,28.24-13.31,39.05l17.19,17.19c3.21,3.21,3.21,8.42,0,11.64s-8.42,3.21-11.64,0l-17.18-17.18h0c-10.81,8.33-24.35,13.3-39.05,13.3s-28.24-4.97-39.05-13.31l-17.19,17.19c-3.21,3.21-8.42,3.21-11.64,0s-3.21-8.42,0-11.64l17.19-17.19c-8.34-10.81-13.31-24.35-13.31-39.05s4.97-28.24,13.31-39.05h0s-17.18-17.19-17.18-17.19c-3.21-3.21-3.21-8.42,0-11.64s8.42-3.21,11.64,0l17.18,17.18h0c10.81-8.33,24.35-13.3,39.05-13.3s28.24,4.97,39.05,13.31l17.19-17.19c3.21-3.21,8.42-3.21,11.64,0s3.21,8.42,0,11.64l-17.19,17.19c8.34,10.81,13.31,24.35,13.31,39.05ZM460.36,460.36h70.43v52.14c0,10.1-8.19,18.29-18.29,18.29h-52.14v-70.43ZM460.36,89.21V18.79h52.14c10.1,0,18.29,8.19,18.29,18.29v52.14h-70.43Z" style="fill: none; stroke: #000; stroke-miterlimit: 10;"/>
</svg>